<svg width="127" height="26" viewBox="0 0 127 26" fill="none" xmlns="http://www.w3.org/2000/svg"><path fill-rule="evenodd" clip-rule="evenodd" d="M51.226 19.866c-4.769 3.493-11.681 5.356-17.632 5.356-8.345 0-15.857-3.066-21.54-8.167-.447-.4-.047-.947.49-.635 6.133 3.546 13.716 5.679 21.55 5.679 5.283 0 11.095-1.086 16.439-3.34.807-.34 1.482.525.693 1.107z" fill="#BBBBC4"/><path fill-rule="evenodd" clip-rule="evenodd" d="M53.208 17.612c-.607-.773-4.03-.365-5.565-.184-.468.056-.54-.348-.118-.64 2.726-1.905 7.198-1.355 7.72-.716.52.642-.136 5.097-2.698 7.223-.393.326-.768.152-.593-.28.575-1.428 1.865-4.625 1.254-5.403z" fill="#BBBBC4"/><path fill-rule="evenodd" clip-rule="evenodd" d="M47.75 3.334V1.48c0-.28.214-.468.471-.468h8.349c.267 0 .482.191.482.468v1.587c-.004.266-.229.614-.629 1.164l-4.326 6.136c1.608-.039 3.304.2 4.762 1.015.329.185.418.455.443.721v1.977c0 .27-.3.585-.614.422-2.569-1.338-5.98-1.483-8.82.014-.29.157-.593-.156-.593-.425v-1.878c0-.302.004-.816.307-1.274l5.012-7.141h-4.362c-.268 0-.482-.188-.482-.465zM17.297 14.894h-2.54a.478.478 0 0 1-.453-.43V1.514c0-.26.218-.466.49-.466h2.368c.246.01.443.199.46.433v1.693h.047c.618-1.636 1.779-2.4 3.343-2.4 1.59 0 2.583.764 3.297 2.4.615-1.636 2.012-2.4 3.508-2.4 1.065 0 2.23.437 2.94 1.417.804 1.09.64 2.673.64 4.06l-.004 8.174c0 .26-.218.469-.49.469h-2.535a.481.481 0 0 1-.458-.469V7.561c0-.547.05-1.91-.071-2.428-.19-.87-.758-1.114-1.493-1.114-.615 0-1.258.408-1.518 1.061-.261.653-.236 1.746-.236 2.481v6.864c0 .26-.218.469-.49.469h-2.536a.479.479 0 0 1-.457-.469l-.004-6.864c0-1.445.24-3.57-1.564-3.57-1.826 0-1.754 2.072-1.754 3.57v6.864c0 .26-.218.469-.49.469M64.239.775c3.768 0 5.808 3.215 5.808 7.304 0 3.95-2.254 7.084-5.808 7.084-3.7 0-5.716-3.215-5.716-7.222 0-4.032 2.04-7.166 5.716-7.166zm.021 2.644c-1.872 0-1.99 2.534-1.99 4.114 0 1.583-.024 4.961 1.969 4.961 1.968 0 2.061-2.725 2.061-4.386 0-1.094-.046-2.4-.379-3.436-.285-.902-.853-1.253-1.66-1.253zM74.934 14.894h-2.53a.481.481 0 0 1-.456-.469l-.004-12.954a.48.48 0 0 1 .49-.423h2.353c.222.01.404.16.454.362v1.98h.047c.71-1.77 1.707-2.615 3.461-2.615 1.14 0 2.25.408 2.965 1.526.664 1.036.664 2.78.664 4.032v8.152a.487.487 0 0 1-.49.409h-2.546a.48.48 0 0 1-.45-.409V7.452c0-1.416.164-3.489-1.59-3.489-.618 0-1.186.412-1.468 1.036-.357.792-.404 1.58-.404 2.453v6.974a.487.487 0 0 1-.496.469zM83.968 13.864c0-.653.56-1.178 1.25-1.178s1.25.525 1.25 1.178c0 .65-.56 1.182-1.25 1.182s-1.25-.532-1.25-1.182zM110.877 14.897a.477.477 0 0 1-.472-.468V1.478a.47.47 0 0 1 .454-.426h.932c.257 0 .464.184.486.426v1.888c.664-1.498 1.9-2.67 3.461-2.67h.19c1.657 0 2.868 1.215 3.318 2.979.704-1.743 2.025-2.978 3.769-2.978h.193c1.232 0 2.418.788 3.032 1.987.593 1.147.572 2.673.572 3.954l-.004 7.79c.004.25-.2.451-.453.47h-1.115a.486.486 0 0 1-.471-.405V6.638c0-.926.046-1.91-.333-2.754-.385-.862-1.125-1.402-1.918-1.441-.886.043-1.7.685-2.229 1.551-.686 1.118-.661 2.126-.661 3.432V14.5a.487.487 0 0 1-.453.397h-1.108a.48.48 0 0 1-.475-.468l-.007-8.309c0-.763-.046-1.661-.4-2.346-.411-.78-1.147-1.292-1.918-1.331-.8.046-1.608.653-2.086 1.36-.618.9-.736 2.015-.736 3.162v7.464c0 .248-.204.45-.458.468h-1.11zM103.225 15.167c-3.604 0-5.219-3.652-5.219-7.304 0-3.84 1.897-7.166 5.526-7.166h.193c3.529 0 5.287 3.542 5.287 7.194 0 3.869-1.947 7.276-5.598 7.276h-.189zm.264-1.771c1.186-.04 2.122-.77 2.676-1.988.496-1.093.593-2.346.593-3.545 0-1.306-.143-2.67-.761-3.787-.554-.976-1.504-1.598-2.511-1.633-1.122.039-2.126.795-2.629 1.96-.454 1.007-.593 2.345-.593 3.46 0 1.253.164 2.7.686 3.79.507 1.033 1.482 1.704 2.539 1.743zM91.963 13.34c1.618-.05 2.468-1.339 2.818-3.007.071-.21.232-.37.468-.37l1.068-.003c.254.01.486.202.464.437-.493 2.843-2.218 4.77-4.676 4.77h-.193c-3.579 0-5.122-3.57-5.122-7.194 0-3.596 1.565-7.276 5.144-7.276h.193c2.486 0 4.258 1.902 4.644 4.745 0 .213-.2.398-.436.422l-1.118-.014c-.236-.032-.39-.23-.425-.454-.268-1.587-1.186-2.85-2.715-2.9-2.433.078-3.126 3.053-3.126 5.342 0 2.204.579 5.423 3.012 5.501M41.095 8.708c0 .983.025 1.803-.475 2.676-.404.71-1.047 1.146-1.758 1.146-.975 0-1.546-.738-1.546-1.828 0-2.15 1.94-2.541 3.779-2.541v.547zm2.561 6.15a.533.533 0 0 1-.6.06c-.843-.695-.997-1.018-1.457-1.682-1.393 1.413-2.383 1.835-4.187 1.835-2.14 0-3.8-1.31-3.8-3.932 0-2.048 1.114-3.443 2.707-4.124 1.379-.604 3.304-.71 4.776-.877v-.327c0-.6.046-1.31-.31-1.827-.308-.465-.901-.657-1.426-.657-.968 0-1.829.493-2.04 1.516-.043.227-.21.45-.443.46l-2.46-.262c-.208-.046-.44-.213-.38-.529.565-2.967 3.265-3.861 5.68-3.861 1.236 0 2.85.326 3.826 1.256 1.236 1.147 1.118 2.676 1.118 4.341v3.933c0 1.181.493 1.7.957 2.339.161.227.197.5-.01.67-.518.43-1.44 1.228-1.947 1.676l-.004-.008M7.8 8.708c0 .983.024 1.803-.476 2.676-.403.71-1.043 1.146-1.757 1.146-.975 0-1.543-.738-1.543-1.828 0-2.15 1.94-2.541 3.775-2.541v.547zm2.56 6.15a.533.533 0 0 1-.6.06c-.843-.695-.993-1.018-1.457-1.682-1.393 1.413-2.38 1.835-4.187 1.835-2.136 0-3.8-1.31-3.8-3.932 0-2.048 1.118-3.443 2.707-4.124 1.38-.604 3.305-.71 4.776-.877v-.327c0-.6.047-1.31-.307-1.827-.31-.465-.904-.657-1.425-.657-.968 0-1.833.493-2.043 1.516-.043.227-.211.45-.44.46L1.12 5.042c-.207-.046-.435-.213-.378-.529C1.309 1.545 4.006.651 6.42.651c1.235 0 2.85.326 3.825 1.256 1.236 1.147 1.118 2.676 1.118 4.341v3.933c0 1.181.493 1.7.958 2.339.164.227.2.5-.007.67-.518.43-1.44 1.228-1.947 1.676l-.008-.008" fill="#818192"/></svg>