<svg width="105" height="36" viewBox="0 0 105 36" fill="none" xmlns="http://www.w3.org/2000/svg"><path d="M35.599 12.095H23.922V.414H12.246v11.681H.568v11.682h11.678v11.682h11.676V23.777h11.677V12.095z" fill="#BBBBC4"/><path d="M51.415 19.185h-1.154v-1.987h1.143c.4 0 1.34.006 1.34.991 0 1.005-.965.996-1.329.996zm2.032 1.222l.142-.057c.36-.144.672-.267.97-.586.398-.405.6-.971.6-1.615 0-.824-.357-1.905-1.36-2.33-.527-.223-1.333-.25-1.979-.25h-3.984v8.168h2.425v-2.956h.89l1.632 2.956h2.673l-1.96-3.25-.049-.08zM65.792 19.198c.311 0 .739.197.907.749.08.24.096.483.096.776 0 .312 0 .888-.335 1.236a.952.952 0 0 1-.658.29.9.9 0 0 1-.659-.28c-.24-.259-.356-.663-.356-1.235 0-.272.022-.502.07-.722v-.004c.21-.751.769-.81.935-.81zm-3.19 1.41c0 1.945 1.025 3.28 2.61 3.28.331 0 .617-.047.874-.145.323-.123.433-.247.581-.416l.141-.162v.574h2.149V15.58h-2.218v2.688l-.159-.14c-.24-.22-.604-.55-1.447-.55-1.26 0-2.53.992-2.53 3.028zM57.828 19.85c.056-.26.204-.904.979-.904.353 0 .76.207.875.673l.026.154.018.182h-1.92l.022-.105zm2.216 1.702c-.256.555-.653.824-1.157.824-.215 0-.524-.052-.773-.301-.286-.286-.3-.585-.31-.854l-.005-.091h4.182c-.022-.895-.057-1.852-.885-2.672a3.447 3.447 0 0 0-2.347-.947c-1.921 0-3.212 1.34-3.212 3.212 0 .85.284 1.63.799 2.2a3.22 3.22 0 0 0 2.424 1.059c1.349 0 2.393-.649 3.098-1.673-.162-.068-1.697-.706-1.814-.757zM51.284 9.93l.975-3.152.95 3.152h-1.925zm2.811 2.967h2.599c-.08-.21-3.007-8.064-3.044-8.166h-2.761l-3.117 8.166h2.596l.387-1.222h2.96l.38 1.222zM61.31 9.303c.024.121.036.244.036.361v3.233h2.218V9.7c0-.127 0-.39.125-.623.15-.284.388-.429.792-.429.912 0 .88.75.88 1.11v3.139h2.217l.001-3.866-.001-.005c-.01-.552-.024-1.177-.543-1.686-.364-.366-.95-.575-1.606-.575-1.422 0-1.819.754-1.93 1.006l-.068.156-.076-.15c-.156-.299-.365-.641-1.12-.877a2.985 2.985 0 0 0-.888-.135c-1.233 0-1.546.586-1.734.892l-.161.262V6.914h-2.115v5.983h2.22V9.638l.002-.038c.01-.204.024-.457.252-.686a.878.878 0 0 1 .656-.266c.352 0 .734.171.844.655zM70.76 8.999c.056-.26.204-.907.98-.907.353 0 .76.209.873.675l.028.156.018.18h-1.922L70.761 9zm2.215 1.703c-.255.555-.653.822-1.156.822-.216 0-.524-.05-.772-.3-.286-.285-.302-.587-.313-.855l-.004-.09h4.183c-.023-.896-.059-1.853-.886-2.672a3.445 3.445 0 0 0-2.346-.947c-1.922 0-3.211 1.34-3.211 3.212 0 .85.282 1.63.799 2.2a3.218 3.218 0 0 0 2.422 1.059c1.349 0 2.393-.649 3.1-1.674l-1.816-.755zM77.897 6.868H75.77v6.029h2.207V10.065c.011-.38.04-1.381 1.513-1.381.135 0 .353.007.486.015V6.777c-.829.002-1.327.154-1.945.706l-.134.119v-.734zM80.779 6.901h2.386v6.003H80.78V6.901zm0-2.177h2.386V6.31H80.78V4.724zM89.561 12.12c.265-.264.437-.558.577-.852l-1.715-.94c-.122.393-.413 1.046-1.13 1.046-.505 0-1.108-.252-1.108-1.456 0-1.047.446-1.698 1.165-1.698.516 0 .882.311 1.07.954.15-.085 1.588-.897 1.714-.97a3.192 3.192 0 0 0-.472-.6c-.897-.913-2.054-.978-2.427-.978-1.022 0-1.857.36-2.415.942-.528.542-.832 1.39-.832 2.282 0 1.937 1.22 3.269 3.108 3.269 1.333 0 2.126-.649 2.465-.999zM93.362 10.504h.002l.002-.001c.188-.065.374-.107.554-.15l.062-.014c.232-.066.457-.145.674-.22l.133-.047v.113c0 .21 0 .42-.122.689-.227.502-.823.697-1.17.697-.49 0-.671-.269-.671-.478 0-.092.038-.39.536-.589zm-.501 2.523c1.081 0 1.625-.377 1.917-.58l.138-.095v.545h2.116c-.113-.187-.14-.336-.14-.667V8.89c0-.348 0-.876-.339-1.311-.408-.525-1.224-.87-2.422-.87-.905 0-1.596.177-2.11.445-.78.41-.95 1.025-1.036 1.545l2.068-.054c.095-.477.324-.633.859-.633.72 0 .875.304.888.76l.002.064-.06.016c-.363.105-.621.164-1.282.256-1 .133-1.66.219-2.195.763-.321.322-.485.734-.485 1.225 0 .895.549 1.93 2.08 1.93zM102.09 9.617v3.28h2.219V9.109c0-.322 0-1.261-.576-1.825-.37-.348-.877-.533-1.529-.533-1.253 0-1.634.608-1.84.9l-.157.222v-.97h-2.09v5.994h2.217V9.7c0-.264.012-1.065.898-1.065.891 0 .858.715.858.982zM74.954 21.231c-.258-.418-.396-.997-.396-1.675 0-.316 0-1.282.636-1.895a1.613 1.613 0 0 1 1.154-.463c1.101 0 1.554.92 1.759 1.399l2.04-1.019c-.157-.288-.378-.665-.693-.988-.81-.835-1.95-1.31-3.21-1.31-1.258 0-2.325.487-3.086 1.377-.674.787-1.06 1.94-1.06 3.049 0 1.098.356 2.185 1.002 2.94.745.872 1.833 1.347 3.144 1.347 1.233 0 2.338-.434 3.109-1.195.361-.36.617-.826.807-1.185l-2.072-1.003c-.393 1.078-1.166 1.384-1.727 1.384-.62 0-1.094-.256-1.407-.763zM88.784 22.387c-1.034 0-1.19-1.043-1.19-1.665 0-.596.154-1.602 1.175-1.628.321-.01.582.082.78.272.273.265.412.714.412 1.333 0 1.395-.64 1.688-1.177 1.688zm2.508-4.028c-.263-.249-1.027-.847-2.451-.86-1.075-.006-1.968.33-2.58.94-.573.568-.874 1.423-.874 2.353 0 .837.277 1.661.778 2.2.581.629 1.463.977 2.55.977 1.07 0 1.962-.319 2.577-.892.595-.556.91-1.4.91-2.32 0-.9-.348-1.86-.91-2.398zM97.608 20.23c-.282-.145-.533-.203-1.586-.443l-.047-.012c-.787-.194-.975-.235-.975-.484 0-.148.077-.393.591-.393.63 0 1.194.343 1.595.592.08-.071 1.07-.976 1.191-1.085-.287-.218-.736-.56-1.49-.74a5.882 5.882 0 0 0-1.332-.16c-.898 0-1.59.247-2.059.692a1.992 1.992 0 0 0-.576 1.369c0 1.216 1.037 1.55 1.596 1.713.535.158 1.026.24 1.235.274.233.034.67.09.67.441 0 .31-.355.45-.704.45-.321 0-.641-.066-.979-.203a2.903 2.903 0 0 1-.928-.627l-1.225 1.127c.493.401 1.486 1.226 3.154 1.226 1.908 0 2.762-1.08 2.762-2.215 0-.65-.318-1.212-.893-1.521zM103.885 20.23c-.281-.145-.531-.203-1.587-.443l-.046-.012c-.786-.194-.974-.235-.974-.484 0-.148.077-.393.591-.393.63 0 1.194.343 1.595.592.079-.071 1.069-.976 1.192-1.085-.288-.218-.738-.56-1.491-.74a5.89 5.89 0 0 0-1.333-.16c-.898 0-1.59.247-2.058.692a1.99 1.99 0 0 0-.575 1.369c0 1.216 1.037 1.55 1.593 1.713.536.158 1.027.24 1.237.274.234.034.668.09.668.441 0 .31-.353.45-.703.45-.321 0-.641-.066-.98-.203a2.92 2.92 0 0 1-.927-.627c-.098.09-1.107 1.02-1.225 1.127.493.401 1.485 1.226 3.155 1.226 1.908 0 2.76-1.08 2.76-2.215 0-.65-.316-1.212-.892-1.521zM82.883 17.72h-2.126v6.028h2.207v-2.834c.01-.377.04-1.382 1.512-1.382.136 0 .354.01.487.02v-1.925c-.828.004-1.327.155-1.946.708l-.134.118v-.733z" fill="#818192"/></svg>