<svg width="79" height="31" viewBox="0 0 79 31" fill="none" xmlns="http://www.w3.org/2000/svg"><path d="M77.481 2.256v26.45H1.738V2.257H77.48zM78.817.92H.402v29.122h78.415V.92z" fill="#818192"/><path d="M21.197 8.535v13.893l1.068.134v.801h-5.298v-.801l1.114-.134v-6.323h-6.815v6.323l1.069.134v.801H7.081v-.801l1.069-.134V8.535L7.08 8.4V7.6h5.255V8.4l-1.069.134v5.922h6.813V8.535L16.966 8.4V7.6h5.298V8.4l-1.067.134zM28.855 8.624a1.7 1.7 0 0 1-1.69 1.826 1.637 1.637 0 0 1-1.689-1.781 1.693 1.693 0 1 1 3.384-.045h-.005zm-.356 13.893l1.024.134v.712h-4.898v-.712l1.024-.134V13.03l-1.024-.131v-.714h3.916v10.332h-.042zM31.616 22.65l.98-.133V8.001l-.98-.179V7.11h3.916v15.407l.98.134v.712h-4.896v-.712zM42.481 12.142h2.627v1.07h-2.627v6.68c0 1.736.356 2.27 1.915 2.27a5.815 5.815 0 0 0 1.559-.133v.757a11.368 11.368 0 0 1-3.61.713c-2.27 0-2.763-1.025-2.763-2.984V13.21h-2.044v-1.068h2.138V9.825l2.853-.845v3.162h-.048zM55.083 17.797c0-3.562-1.069-5.076-2.764-5.076-1.648 0-2.717 1.47-2.717 5.076 0 3.562 1.07 5.032 2.717 5.032 1.781 0 2.764-1.383 2.764-5.032zm3.206.089c0 3.473-2.36 5.836-6.011 5.836-3.562 0-5.836-1.515-5.836-5.836 0-3.609 2.36-6.011 6.011-6.011 3.651-.045 5.836 2.137 5.836 6.011zM72.138 22.65v.71H67.24v-.713l.98-.133v-6.41c0-1.781-.669-2.583-2.005-2.583a4.991 4.991 0 0 0-2.316.936v8.015l1.025.134v.712H59.98v-.712l1.024-.134v-9.395l-1.024-.134v-.801h3.916V13.7c1.203-.98 2.405-1.781 4.052-1.781 2.182 0 3.162 1.291 3.162 3.83v6.766l1.024.134.002.001z" fill="#818192"/></svg>