<svg width="64" height="52" viewBox="0 0 64 52" fill="none" xmlns="http://www.w3.org/2000/svg"><path d="M29.536 52c14.36 0 26-11.64 26-26s-11.64-26-26-26-26 11.64-26 26 11.64 26 26 26z" fill="#818192"/><path d="M28.001 5.286a.291.291 0 1 0 0-.583.291.291 0 0 0 0 .583zM30.993 5.674a.291.291 0 1 0 0-.583.291.291 0 0 0 0 .583zM34.919 10.96a.291.291 0 1 0 0-.583.291.291 0 0 0 0 .583zM13.388 38.165a.291.291 0 1 0 0-.583.291.291 0 0 0 0 .583zM14.146 40.496a.291.291 0 1 0 0-.582.291.291 0 0 0 0 .582zM10.532 38.441a.218.218 0 1 0 0-.436.218.218 0 0 0 0 .436zM22.385 43.023a.219.219 0 1 0 0-.438.219.219 0 0 0 0 .438zM40.977 39.16a.218.218 0 1 0 0-.436.218.218 0 0 0 0 .436zM46.38 33.292a.219.219 0 1 0 0-.438.219.219 0 0 0 0 .438zM19.898 12.591a.218.218 0 1 0 0-.436.218.218 0 0 0 0 .436zM25.845 8.225a.218.218 0 1 0 0-.437.218.218 0 0 0 0 .437zM25.198 7.797a.218.218 0 1 0 0-.437.218.218 0 0 0 0 .437zM24.615 7.37a.218.218 0 1 0 0-.437.218.218 0 0 0 0 .437zM20.83 13.72a.218.218 0 1 0 0-.437.218.218 0 0 0 0 .436zM29.59 2.356a.218.218 0 1 0 0-.437.218.218 0 0 0 0 .437zM31.028 8.652a.218.218 0 1 0 0-.436.218.218 0 0 0 0 .436zM28.76 7.423a.218.218 0 1 0-.001-.437.218.218 0 0 0 0 .437zM24.873 9.094a.218.218 0 1 0 0-.436.218.218 0 0 0 0 .436zM42.011 44.927a.218.218 0 1 0 0-.436.218.218 0 0 0 0 .436zM13.019 39.57a.219.219 0 1 0 0-.439.219.219 0 0 0 0 .438zM28.215 42.387a.219.219 0 1 0 0-.438.219.219 0 0 0 0 .438zM17.542 39.394a.219.219 0 1 0 0-.437.219.219 0 0 0 0 .437zM19.432 42.48a.219.219 0 1 0 0-.439.219.219 0 0 0 0 .438zM33.345 40.536a.218.218 0 1 0 0-.437.218.218 0 0 0 0 .437zM41.015 36.207a.218.218 0 1 0 0-.437.218.218 0 0 0 0 .437zM46.83 38.863a.218.218 0 1 0 0-.436.218.218 0 0 0 0 .436zM48.813 40.132a.218.218 0 1 0 0-.437.218.218 0 0 0 0 .437zM49.139 36.673a.218.218 0 1 0 0-.436.218.218 0 0 0 0 .436zM20.223 31.776a.218.218 0 1 0 0-.436.218.218 0 0 0 0 .436zM20.306 36.863a.291.291 0 1 0 0-.583.291.291 0 0 0 0 .583zM22.055 40.555a.291.291 0 1 0 0-.583.291.291 0 0 0 0 .583zM43.003 36.708a.291.291 0 1 0 0-.583.291.291 0 0 0 0 .583zM50.542 36.28a.291.291 0 1 0 0-.583.291.291 0 0 0 0 .583zM46.811 34.687a.291.291 0 1 0 0-.583.291.291 0 0 0 0 .583zM43.003 34.842a.291.291 0 1 0 0-.583.291.291 0 0 0 0 .583zM35.146 4.812l.725-.07-.723-.04a.322.322 0 0 0-.276-.268l-.07-.722-.041.728a.32.32 0 0 0-.248.274l-.74.068.746.04a.321.321 0 0 0 .255.246l.067.744.04-.743a.325.325 0 0 0 .265-.257zM22.913 12.881l.725-.069-.724-.04a.32.32 0 0 0-.276-.268l-.069-.722-.04.728a.32.32 0 0 0-.249.274l-.74.068.745.04a.32.32 0 0 0 .256.246l.067.744.04-.743a.322.322 0 0 0 .265-.258zM50.01 34.216l.726-.069-.724-.04a.32.32 0 0 0-.276-.268l-.07-.722-.04.728a.32.32 0 0 0-.247.274l-.741.068.746.04a.32.32 0 0 0 .255.246l.067.744.04-.743a.323.323 0 0 0 .265-.258zM20.465 45.372l.724-.07-.723-.04a.322.322 0 0 0-.276-.268l-.07-.72-.04.726a.32.32 0 0 0-.248.275l-.741.067.746.04a.32.32 0 0 0 .255.247l.068.743.04-.742a.323.323 0 0 0 .265-.258zM47.709 39.93l.724-.069-.723-.04a.32.32 0 0 0-.276-.268l-.07-.722-.04.727a.32.32 0 0 0-.247.275l-.742.067.747.04a.32.32 0 0 0 .255.246l.067.744.04-.743a.322.322 0 0 0 .265-.257z" fill="#fff"/><path d="M35.702 19.773c-3.023 1.175-5.971 2.223-8.46 3.002C22.188 24.358 8.356 28.643 0 34.045l.7.272c5.09-2.875 8.4-3.78 11.581-4.78 3.459-1.088 14.64-3.705 19.704-5.13a85.637 85.637 0 0 0 5.836-1.878 51.931 51.931 0 0 0-2.118-2.756zm3.693 5.09A33.39 33.39 0 0 1 37.621 26c-2.488 1.439-14.614 9.717-17.373 11.62-2.758 1.905-10.415 9.134-12.67 11.233l-.077.854c7.268-6.53 9.548-8.14 12.436-10.337 3.576-2.72 10.973-7.754 13.486-9.366a437.73 437.73 0 0 0 6.516-4.257 62.286 62.286 0 0 0-.543-.884zm11.361-11.998c-3.54 2.075-9.12 4.58-14.535 6.705a46.538 46.538 0 0 1 2.1 2.776c4.256-1.567 8.925-3.671 12.63-6.218-1.765 1.673-7.6 6.034-11.159 8.465.184.299.361.597.533.895 5.39-3.608 9.018-6.263 11.131-8.038C54.371 15 61.016 9.522 63.543 2.176c-4.431 5.636-9.67 8.861-12.787 10.688z" fill="#BBBBC4"/><path d="M26.19 32.438c-.572-.721-1.365-1.687-1.96-2.437a45.286 45.286 0 0 1-2.208-3.025l-.66.165a45.981 45.981 0 0 0 2.706 3.782c.72.907 1.375 1.637 1.71 2.09.069.093.204.296.386.567l.635-.431c-.206-.225-.41-.462-.608-.71zm4.185 3.799c-.47-.446-1.613-1.19-2.801-2.307-.263.18-.527.363-.793.547.768 1.082 1.813 2.41 2.632 2.798 1.233.584 1.565-.467.962-1.038zm6.233-16.187C29.812 11.496 21.51 6.797 17.931 9.64c-2.78 2.21-1.639 8.665 2.193 15.446l.589-.2c-3.868-6.607-4.926-12.747-2.304-14.831 3.295-2.618 11.251 2.1 17.85 10.405a49.26 49.26 0 0 1 3.584 5.127c3.894 6.445 5.09 12.273 2.399 14.652-.824.728-3.34 1.014-6.635-.47-.046.058.028.214.086.253 2.844 1.144 5.57 1.58 6.945.487 3.306-2.628.766-11.905-6.03-20.459zM7.462 21.065h4.352l3.654 6.199v-4.839c0-.544-.69-1.253-.933-1.36h3.012c-.185.048-.777.767-.777 1.36v7.112c0 .438.631 1.04.932 1.273h-4.197l-3.711-6.228v4.897c0 .486.476.952.971 1.35H7.56c.456-.194.894-.806.933-1.292.038-.485 0-6.752 0-7.024 0-.593-.574-1.079-1.03-1.448z" fill="#fff"/><path d="M47.278 30.81h5.79c-.32-.078-.68-.457-.874-.962-.194-.505-3.265-8.783-3.265-8.783h-2.201c-.625.45-1.294.924-2.008 1.423a.718.718 0 0 1-.007.054c-.096.583-1.82 6.823-1.924 7.131-.146.428-.894.904-1.195 1.157h3.119c-.311-.35-.564-.69-.506-1.079.059-.389.233-1.166.233-1.166h3.226c.146.389.255.738.311 1.069.068.398-.34.845-.7 1.156zm-2.546-3.468l1.088-3.557 1.438 3.556h-2.526zm-.49-5.922l.48-.355h-.845c.084.078.223.2.365.355zM22.094 29.751c.058-.389.233-1.166.233-1.166h3.226c.145.389.254.738.31 1.069.069.398-.34.845-.699 1.156h5.098l.318-.213a1.94 1.94 0 0 1-.5-.749c-.194-.505-3.264-8.783-3.264-8.783h-5.052c.242.223.942.826.835 1.477-.095.583-1.819 6.823-1.924 7.131-.145.428-.894.904-1.195 1.157h3.12c-.312-.35-.565-.69-.506-1.079zm1.613-5.966l1.438 3.556h-2.526l1.088-3.556zM39.705 25.902c-.95.634-1.954 1.295-3.011 1.985.474.23.852.52.888.892.067.701-1.34 1.04-2.614.894a3.147 3.147 0 0 1-.743-.185l-.802.516c-.275.176-.609.394-.99.645v1.006c.252-.495.805-.939 1.233-.962.185-.01.826.583 3.469.438 1.282-.07 3.76-1.438 3.721-3.012-.023-.93-.509-1.656-1.15-2.217zm-7.273 2.43v1.025l.69-.46a5.106 5.106 0 0 1-.69-.564zm6.37-3.073a8.83 8.83 0 0 0-.735-.386c-1.244-.583-2.545-.69-2.818-1.477-.191-.555.35-1.069 1.672-1.05 1.321.02 2.545.807 2.876 1.089v-2.507c-.098.097-.524.586-.914.505a17.07 17.07 0 0 0-3.478-.35c-1.671.01-3.11 1.302-3.158 2.935-.068 2.283 1.759 2.905 2.789 3.264.106.037.227.077.358.119A58.404 58.404 0 0 1 37.621 26c.307-.177.71-.43 1.18-.741z" fill="#fff"/></svg>