<svg width="80" height="36" viewBox="0 0 80 36" fill="none" xmlns="http://www.w3.org/2000/svg"><path d="M21.477 16.683c-2.817 0-3.04-2.145-3.04-2.777 0-.75.17-2.146 2-2.817 1.83-.671 2.225-.75 3.528-1.158v-.316c0-.632 0-.75-.145-1.158-.224-.724-.934-1.211-1.922-1.211-.934 0-1.737.526-2.105 1.303l-.527-.316c.316-1.158 1.514-2.317 3.567-2.317 1.422 0 2.409.408 2.988 1.303.434.724.487 1.698.487 2.686 0 .895-.053 1.882-.053 2.685 0 .526-.052 1.04-.052 1.33 0 .723.145 1.302.724 1.302.263 0 .316-.092.526-.223l.316.408c-.526.724-1.158 1.303-2.198 1.303-.803 0-1.382-.408-1.62-1.066-.328.46-1.184 1.04-2.474 1.04zm2.488-5.462c-1.382.408-1.882.632-2.277.842-.632.316-.895.895-.895 1.646 0 .579.224 1.513 1.566 1.513.435 0 1.066-.092 1.646-.487v-3.527h-.04v.013zM.706 16.13c0-1.04 0-1.922-.092-2.988h.632c0 .67.171 1.158.487 1.474.434.487 1.474.803 2.409.803 1.961 0 2.896-.75 2.896-2.37 0-1.382-.843-1.96-2.001-2.777l-.171-.145-1.25-.842C1.877 8.128.982 7.233.982 5.403c0-.895.355-3.844 4.686-3.844 1.119 0 2.54.145 3.396.264 0 .144-.053.803-.053 1.382 0 .671 0 .842.053 1.645h-.527c0-.724-.223-1.158-.526-1.474-.408-.408-1.33-.632-2.317-.632-2.317 0-2.58 1.158-2.58 2.053 0 1.211.632 1.646 2 2.54l1.567 1.04c1.33.896 2.58 1.738 2.58 3.976 0 3.751-3.527 4.146-5.002 4.146-1.355.184-2.487-.013-3.554-.368zm28.037-9.543c.527.052 1.33 0 2.106-.145.671-.145.895-.224 1.382-.435l.224.145v.803c.527-.408 1.567-.987 3.04-.987 1.883 0 3.094.895 3.436 2.461.092.408.145 1.33.145 1.883v3.04c0 1.698.092 2.198.408 2.501.171.145.526.316 1.04.316v.487a41.527 41.527 0 0 0-2.58-.092c-.935 0-2 .053-2.58.092v-.487c.527-.053.843-.224 1.04-.355.316-.316.355-.895.408-2.198 0-.409.053-1.212.053-1.79 0-.75 0-1.567-.093-2.37-.144-1.33-.842-1.961-2.198-1.961-.934 0-1.513.224-1.961.434v5.45c0 1.698.092 2.198.408 2.5.171.145.58.316.987.316v.487a46.808 46.808 0 0 0-2.54-.092c-1.382 0-1.83.053-2.633.092v-.513c.435 0 .895-.171 1.12-.434.315-.356.355-1.25.355-2.988V9.654c0-1.303-.053-1.83-.224-2.106-.145-.223-.487-.408-1.211-.408v-.579h-.092v.027h-.04zm12.913 9.516c.434 0 .895-.144 1.119-.434.316-.355.355-1.25.355-2.988v-5.2H41.8v-.579c.58-.223 1.067-.487 1.33-.723 0-.935.053-2.107.171-2.778C43.71 1.257 45.091.19 47.447.19c1.04 0 2.001.356 2.633.843l.053.224-1.04 1.421h-.263c-.356-.842-.895-1.33-1.83-1.33-.316 0-.75.093-1.04.356-.434.435-.526 1.119-.526 2.462v2h2.316V7.47h-2.316v5.766c0 1.382.052 2.053.223 2.316.264.435 1.211.487 1.646.487v.527a47.155 47.155 0 0 0-2.817-.092c-1.303 0-2.146.053-2.817.092l-.013-.46zm11.965.658c-3.16 0-5.041-1.96-5.041-5.265 0-2.58 1.382-5.58 5.265-5.58 3.159 0 5.041 1.96 5.041 5.264 0 2.58-1.395 5.581-5.265 5.581zm.131-9.648c-.631 0-1.118.171-1.474.487-.842.724-1.25 1.961-1.25 3.791 0 .724.145 4.199 2.685 4.199.632 0 1.119-.171 1.474-.487.843-.724 1.25-1.961 1.25-3.791-.012-.71-.13-4.199-2.684-4.199zm6.2-.58c.724.054 1.474-.052 2.277-.17.632-.092 1.04-.224 1.25-.356l.172.093v.895a3.387 3.387 0 0 1 2.409-.988c.803 0 1.33.224 1.83.632v.316l-.896 1.62h-.434c-.263-.488-.803-.935-1.738-.935-.434 0-.803.092-1.118.315v5.318c0 1.382.052 2.001.223 2.277.264.435 1.159.487 1.646.435v.579a46.426 46.426 0 0 0-2.817-.092c-.987 0-2 0-2.817.092v-.527c.58-.052.895-.17 1.119-.434.316-.355.355-1.21.355-2.988V9.72c0-1.303 0-1.83-.223-2.106-.172-.224-.527-.355-1.212-.355v-.671l-.026-.053zM74.562.823c.633 0 1.422-.145 2.462-.316.58-.092.935-.223 1.12-.263l.17.092c-.092.843-.092 2.778-.092 4.146v8.477c0 1.25 0 2.054.171 2.317.171.224.527.408 1.211.408v.527c-.671 0-1.421.092-2.224.223-.527.093-.935.171-1.159.264l-.263-.093v-.895a4.713 4.713 0 0 1-2.896.988c-2.856 0-4.686-1.962-4.686-5.042 0-1.04.171-1.961.527-2.817.895-1.882 2.685-2.948 4.95-2.948.842 0 1.566.092 2 .171V3.863c0-1.303 0-1.961-.224-2.277-.145-.224-.355-.316-1.119-.356V.81h.053v.012zm-.368 14.414c.724 0 1.211-.093 1.698-.409v-6.95c-.17-.17-.803-.723-2.053-.723-2 0-2.988 1.382-2.988 4.251-.04 1.198.316 3.83 3.343 3.83zm-56.784.315c-.316.409-1.119 1.211-2.817 1.211-1.619 0-2.5-.579-2.896-1.882-.17-.487-.17-1.514-.17-2.106 0-1.645 0-2.988.052-4.554v-.724h-1.395v-.408c.526-.224.934-.435 1.303-.724.803-.632 1.33-1.382 1.921-2.501h.435V6.18h3.527v1.303h-3.527v5.449c0 1.645.316 2.54 1.83 2.54.723 0 1.21-.223 1.474-.408l.263.487zM66.89 25.292c-.172 0-.409.052-.527.17-.145.093-.145.224-.145.317 0 .17.052.316.17.671l.988 2.58c.145.408.263.724.316.934l1.211-3.527c.145-.408.171-.487.171-.672 0-.092-.052-.17-.145-.263a.965.965 0 0 0-.526-.17v-.409c.145 0 .434 0 .579.053.145 0 .408.052.632.052.434 0 1.066-.052 1.33-.052v.408c-.172.052-.58-.053-.935.987l-2.54 6.779c-.356.987-.843 2.198-2.58 2.198-.725 0-1.212-.171-1.62-.526v-.172l.632-.75h.171c.171.408.527.58 1.04.58.803 0 1.159-.725 1.698-2.146l.145-.408-2.132-5.568c0-.053-.053-.145-.093-.224-.052-.145-.17-.408-.17-.408-.145-.263-.356-.355-.633-.355v-.408c.408.052 1.12.052 1.475.052.224 0 .579 0 .934-.052.171 0 .487-.053.632-.053v.355h-.053v.027h-.026zm-23.641-.093c.434.053.934-.052 1.421-.144.408-.092.632-.145.803-.224l.145.053v.579a2.082 2.082 0 0 1 1.514-.632c.526 0 .842.145 1.158.408v.224l-.526 1.04H47.5c-.17-.316-.487-.58-1.119-.58-.263 0-.487.093-.724.224v3.357c0 .895.053 1.303.145 1.474.171.263.724.316 1.04.316v.355c-.434-.052-1.25-.052-1.79-.052-.632 0-1.303 0-1.79.092v-.356c.355 0 .579-.144.724-.263.224-.224.224-.75.224-1.922v-1.882c0-.803 0-1.158-.145-1.33-.092-.144-.356-.223-.75-.223v-.487h-.066V25.2zm-29.722 6.477c-1.882 0-2.988-.58-3.396-1.83-.224-.632-.224-1.422-.224-2.053v-3.567c0-1.067-.052-1.251-.263-1.422-.092-.092-.316-.171-.632-.224v-.355c.435.052 1.211.092 1.646.092.75 0 1.21 0 1.698-.092v.408c-.316 0-.527.092-.724.263-.224.224-.224.632-.224 1.79v3.16c0 1.881.171 3.093 2.277 3.093 2.146 0 2.277-1.251 2.277-3.16v-3.475c0-1.066-.053-1.25-.263-1.421a1.83 1.83 0 0 0-.632-.224v-.355c.408 0 .935.052 1.474.052.487 0 .988 0 1.567-.092v.408c-.316 0-.527.092-.724.264-.224.223-.224.631-.224 1.79v2.685c0 .842 0 1.79-.263 2.54-.421 1.145-1.5 1.725-3.37 1.725zm12.729-.409c.355-.052.579-.092.75-.263.224-.224.224-.75.224-1.922V27.2c0-.803 0-1.21-.145-1.382-.092-.145-.264-.224-.75-.263v-.408c.263.053.987-.053 1.513-.145.264-.053.527-.145.724-.224l.145.145c-.053.435-.053 1.382-.053 2.633v1.921c0 .895.053 1.303.145 1.475.145.17.408.315.803.315v.316c-.355-.052-1.04-.052-1.619-.052-.671 0-1.382.052-1.737.092v-.356zm1.645-7.634c-.527 0-.843-.316-.843-.803 0-.487.356-.842.895-.842.527 0 .843.316.843.803-.013.526-.369.842-.895.842zm26.576 7.634c.355-.052.579-.092.75-.263.224-.224.224-.75.224-1.922V27.2c0-.803 0-1.21-.145-1.382-.092-.145-.263-.224-.75-.263v-.408c.263.053.987-.053 1.513-.145.264-.053.58-.145.724-.224l.145.145c-.053.435-.053 1.382-.053 2.633v1.921c0 .895.053 1.303.145 1.475.145.17.408.315.803.315v.316c-.408-.052-1.066-.052-1.645-.052-.672 0-1.382.052-1.738.092v-.356h.027zm1.645-7.634c-.527 0-.843-.316-.843-.803 0-.487.356-.842.896-.842.526 0 .842.316.842.803 0 .526-.369.842-.895.842zm-7.055 7.727c0-.672-.053-1.382-.093-1.738h.435c0 .356.092.672.263.843.263.316.58.434 1.159.434h.092c.724 0 1.118-.316 1.118-.935 0-.487-.316-.723-.842-1.04l-.934-.579c-.488-.316-1.067-.75-1.067-1.698 0-.75.316-1.329.935-1.645.408-.224 1.04-.224 1.33-.224.526 0 1.302.092 1.737.171-.053.171-.053.632-.053.803 0 .145 0 .75.053.895h-.435a1.24 1.24 0 0 0-.263-.75c-.171-.224-.579-.355-1.066-.355-.671 0-1.04.263-1.04.842 0 .434.355.671.671.895h.053l.895.527c.58.355 1.33.803 1.33 1.83 0 1.737-1.62 2-2.54 2-.527-.013-1.106-.053-1.738-.276zm14.018-.435c-.224.224-.724.75-1.79.75-1.04 0-1.62-.355-1.83-1.21-.092-.316-.092-.988-.092-1.33v-3.33h-.895v-.263c.355-.145.58-.264.843-.435.486-.408.842-.895 1.25-1.619h.316v1.475h2.224v.802h-2.224v3.476c0 1.04.171 1.645 1.158 1.645.435 0 .75-.145.935-.263l.105.302zM32.89 24.936c-.145 0-.435 0-.632.053-.356 0-.724.052-.988.052-.486 0-1.21-.052-1.421-.052v.408c.092 0 .434-.053.671.408.092.171.145.316.171.408.053.092.093.171.093.224l2.145 5.357.671-.145 2.37-5.265c0-.053.052-.092.092-.171.052-.053.052-.145.224-.408a.803.803 0 0 1 .67-.408v-.408c-.262 0-.842.052-1.302.052-.224 0-.435 0-.672-.052-.17 0-.434-.053-.631-.053v.356c.223 0 .434.092.526.17.053.053.145.172.145.264 0 .145-.053.263-.171.671l-1.303 3.16c-.053-.172-.145-.435-.264-.804l-.895-2.369c-.144-.355-.17-.487-.17-.671 0-.092 0-.171.091-.224a.816.816 0 0 1 .58-.224v-.355.026zm-14.585.264c.356.052.843 0 1.33-.093a5.65 5.65 0 0 0 .895-.263l.144.092v.527c.316-.264 1.04-.632 1.922-.632 1.211 0 1.962.58 2.198 1.566.053.264.093.843.093 1.211v1.922c0 1.066.052 1.382.263 1.62.092.091.355.17.632.17v.316c-.435 0-1.211-.053-1.646-.053-.631 0-1.303.053-1.645.093v-.316a2.07 2.07 0 0 0 .671-.224c.171-.171.224-.58.264-1.382v-1.159c0-.486 0-1.04-.053-1.513-.092-.843-.527-1.25-1.382-1.25-.58 0-.988.144-1.25.263v3.5c0 1.067.052 1.383.262 1.62.093.092.356.171.632.171v.316c-.579-.145-1.25-.145-1.698-.145-.895 0-1.158 0-1.645.092v-.316c.263 0 .58-.092.724-.263.171-.224.224-.803.224-1.922v-1.882c0-.803 0-1.158-.145-1.33-.092-.144-.316-.263-.75-.223v-.5h-.04v-.014zm21.693 6.476c-2.001 0-3.094-1.159-3.094-3.265 0-.355.092-3.62 3.12-3.62.895 0 1.698.356 2.053.988.408.631.435 1.25.435 1.79v.408h-4.147c0 .355.053.632.092.842.224 1.303.935 1.922 2.199 1.922.724 0 1.158-.145 1.566-.408l.171.316c-.421.592-1.316 1.027-2.395 1.027zm-1.606-4.463h2.58c0-.803-.145-1.698-1.304-1.698-1.013.053-1.224 1.014-1.276 1.698z" fill="#818192"/></svg>