<svg width="108" height="31" viewBox="0 0 108 31" fill="none" xmlns="http://www.w3.org/2000/svg"><path d="M66.65 8.285s.268-.401.492-.707c.41-.555 1.15-1.324 1.706-1.8.171-.146.371-.312.371-.312s-.315.033-.492.07c-.422.082-1.042.494-1.353.76-.51.437-1.072 1.148-.819 1.779.038.09.095.21.095.21zm2.84.76a5.388 5.388 0 0 0 2.268-.678c.69-.386 1.705-1.139 1.602-2.025a.75.75 0 0 0-.457-.604c-.31-.135-.47-.11-.864.005a2.606 2.606 0 0 0-.682.29c-.793.46-1.915 1.444-2.525 2.23-.141.184-.284.392-.394.533-.072.087-.126.168-.12.19.025.09.857.081 1.173.059zm-2.056 1.51c-.082.087-.17.3-.262.455a.893.893 0 0 1-.199.23c-.21.155-.387.161-.591-.017a1.44 1.44 0 0 1-.46-1.019c-.006-.165.02-.346-.009-.488-.052-.234-.288-.475-.414-.7a2.767 2.767 0 0 1-.284-1.026c-.052-.93.438-1.785 1.075-2.46.641-.684 1.48-1.251 2.392-1.636.861-.365 2.125-.612 3.072-.284.307.106.737.369.953.642.045.058.083.12.13.15.041.027.151.038.24.053.302.053.737.281.914.433.355.308.552.603.642 1.03.182.858-.313 1.801-.876 2.374-.965.988-1.918 1.681-3.153 2.165-.541.212-1.385.41-2.001.354-.19-.016-.388-.066-.573-.08-.094-.008-.442-.095-.478-.123-.046-.033-.105-.065-.118-.053zm-29.44 2.537c.513-.032.83-.057 1.23-.23.222-.094.478-.31.352-.567-.076-.158-.347-.213-.506-.2-.536.035-.923.43-1.106.958-.007.019-.005.039.03.039zm2.244-1.327c.299.374.434.813.467 1.295.033.486-.122.953-.392 1.323-.465.63-1.239.946-2.016 1.004-.106.006-.74.025-.903-.025-.03-.01-.048-.022-.064-.018-.019.002-.125.44-.145.592-.07.537-.154.917-.215 1.34-.052.335-.09.695-.119 1.053-.175 2.087-.115 3.119.058 5.161.012.125.018.267 0 .353a.573.573 0 0 1-.435.478c-.72.19-1.409-.524-1.762-1.094-.825-1.332-.556-4.055-.318-5.4.097-.557.35-1.794.527-2.24.093-.239.242-.71.231-.733-.01-.02-.387-.164-.733-.297a6.814 6.814 0 0 1-.752-.39c-.384-.241-.647-.437-.913-.737a5.162 5.162 0 0 1-.389-.581c-.214-.488-.227-.913-.036-1.433.048-.133.316-.693.493-.675.256.022.2.446.268.665a.941.941 0 0 0 .15.27c.355.418 1.545.881 2.032 1.027.07.022.833.254.945.203.03-.014.174-.272.267-.427a1.15 1.15 0 0 1 .167-.22c.464-.498 1.148-.97 1.83-1.11.3-.061.889-.01 1.186.16.068.038.29.125.57.456zm-7.204 5.918a.296.296 0 0 1 .083.024c.35.153.35.778.266 1.072-.227.774-.961 1.572-1.546 1.97-.35.233-1.065.564-1.576.662-.8.154-1.51-.058-1.938-.706-.387-.585-.558-1.31-.589-1.991-.088-1.956.529-4.813 1.288-6.445.102-.22.604-1.24 1.071-1.404.464-.164.669.38.715.787.059.523-.108 1.217-.24 1.778a86.997 86.997 0 0 0-.648 2.957c-.084.466-.279 1.462-.209 1.97.036.27.088.405.293.389.093-.008 1.406-.612 2.123-.88.27-.1.603-.208.907-.183zm-9.715-.901s.15.002.303 0c.49-.007 1.312-.097 1.312-.097s-.092-.723-.167-1.185a6.689 6.689 0 0 0-.157-.743c-.03-.108-.105-.418-.184-.54-.014-.024-.034-.05-.034-.05s-.397.766-.619 1.3c-.176.423-.265.738-.388.995a.6.6 0 0 0-.066.212.89.89 0 0 0 0 .108zm-2.629.083s.235-.529.418-.929c.192-.42 1.164-2.371 1.565-2.923.444-.617 1.293-1.781 1.3-1.816.018-.129.046-.356.165-.538.092-.146.321-.207.544-.221.247-.015.502.167.613.37.214.387.578 1.485.657 1.748.426 1.462.886 4.193 1.036 5.597.04.368.162 2.286.171 2.718.01.304 0 .807-.174 1.055a.393.393 0 0 1-.307.172c-.16-.006-.485-.231-.627-.363-.393-.371-.654-.748-.738-1.209-.072-.4-.174-1.552-.174-1.552l-1.713.069-.954.016-.164.408c-.16.397-.302.794-.364 1.018-.125.448-.365 1.337-.423 1.476-.12.291-.226.461-.51.499-.313.04-.53.063-.756-.06-.428-.234-.623-.73-.695-1.241-.127-.871.225-1.574.587-2.607.152-.434-.057-.579-.418-1.144a.651.651 0 0 1-.104-.207c-.012-.058.043-.208.122-.27.025-.02.032-.023.076-.025l.867-.041zm-9.781-5.64s-.022-.553-.068-.861c-.039-.261-.091-.457-.215-.657-.137-.218-.24-.356-.456-.389-.263-.038-.41.142-.574.4-.219.351-.437 1.003-.565 1.415a8.917 8.917 0 0 0-.365 1.61c-.165 1.093-.331 2.95-.154 4.214.033.218.087.537.087.537s.264-.296.456-.503c.082-.09.473-.674.508-.735.067-.118.248-.427.274-.49.038-.067.32-.672.37-.814.094-.271.231-.689.337-1.022.248-.767.204-1.05.365-1.902.018-.098.034-.803.016-.803-.008-.002-.016 0-.016 0zm-1.87 8.103s.103.182.185.32a2.476 2.476 0 0 0 2.064 1.238c.902.045 2.059-.477 2.72-.936 1.885-1.312 2.878-3.677 3.42-5.943.637-2.658.666-5.461-.094-8.033-.441-1.493-1.299-3.361-2.361-4.479-.317-.332-.802-.784-.94-.97-.144-.19-.179-.351.04-.48.232-.132.74.144.992.297 1.24.753 2.052 1.504 2.787 2.583.185.273.93 1.498 1.066 1.754.834 1.574 1.261 2.945 1.49 4.682.289 2.21.104 4.72-.661 6.936-.335.973-.85 1.973-1.388 2.817-.127.198-.91 1.25-1.007 1.354-.27.284-.935.86-1.245 1.11-1.556 1.249-3.236 2.067-5.08 1.841-1.014-.125-1.846-.46-2.659-1.121-.311-.256-.837-.79-1.048-1.169-.137-.243-.307-.539-.329-.543-.024-.005-.114.056-.212.124-.086.06-.451.23-.645.301-1.265.472-2.68.361-3.843-.393-.843-.546-1.556-1.583-1.871-2.523-.465-1.394-.502-2.838-.313-4.322.323-2.517 1.23-4.901 2.58-7.012.853-1.33 1.959-2.644 3.278-3.586.148-.107.953-.575 1.118-.65.297-.14.693-.27.922-.025.12.127.116.23.027.396-.14.26-.498.612-.696.822a41.706 41.706 0 0 0-1.344 1.656A53.57 53.57 0 0 0 4.653 7.38c-1.247 2.16-2.238 5.582-2.142 8.236.02.548.1 1.338.224 1.853.167.694.58 1.633 1.2 2.07.653.464 1.257.437 2.039.127.207-.084.502-.217.502-.217s-.227-.583-.376-1.022c-.41-1.217-.574-3.16-.423-4.497.124-1.096.369-1.935.864-2.805a7.283 7.283 0 0 1 1.59-1.949c.641-.546 1.664-1.021 2.564-1.045.748-.018 1.522.308 1.915.987.683 1.183.726 3.049.534 4.279-.29 1.86-1.252 3.606-2.642 4.789a39.018 39.018 0 0 1-1.464 1.142zm59.498-6.868c.038.007.096.024.146.041.433.165.61.567.717 1.006.247 1.021.353 3.28.394 4.166.03.662.046 1.317.074 1.972.023.556.068 1.295-.047 1.817a.857.857 0 0 1-.347.515c-.206.132-.674.142-.93.089-.634-.131-.84-.539-.93-1.165-.215-1.495-.112-4.43.015-5.668.041-.407.196-1.718.41-2.266.072-.187.228-.56.498-.507zm-19.52 2.243s-.938.067-1.582.139c-.822.087-2.365.354-3.255.674-.268.093-.81.32-.858.594-.048.287.127.508.325.74.113.133.757.751.936.902.757.63 2.29 1.604 3.42 2.077.386.161 1.028.39 1.028.39s-.048-1.826-.039-3.626c.004-.95.026-1.89.026-1.89zm17.193.728c.054.49-.073 1.419-.094 1.54-.04.283-.254.933-.288 1.013-.172.394-.34.72-.52 1.043-.309.553-1.039 1.43-1.474 1.806-1.613 1.395-4.112 2.19-6.256 2.451a15.958 15.958 0 0 1-4.667-.136c-.53-.097-1.318-.278-1.318-.278s.002.316-.024.538a2.27 2.27 0 0 1-.131.454c-.113.231-.296.35-.563.4-.323.063-.666.081-.965-.045-.489-.208-.665-.667-.75-1.193-.07-.424-.142-1.16-.142-1.16s-.366-.172-.672-.325a17.267 17.267 0 0 1-2.61-1.6 31.347 31.347 0 0 1-1.349-1.131c-.574-.543-1.09-1.087-1.484-1.783-.306-.544-.394-1.027-.162-1.603.322-.803 1.473-1.41 2.261-1.754.58-.255 2.378-.843 3.126-.951.352-.05.9-.148.933-.17a.16.16 0 0 0 .033-.031c.017-.025.047-.82.04-1.11-.005-.287.213-2.165.283-2.561.038-.217.2-1.043.367-1.26.108-.146.3-.136.456-.038.857.532 1.117 2.38 1.18 3.321.04.573.058 1.435.058 1.435s.983-.028 1.589-.012c.587.014 1.235.107 1.845.205.782.123 2.304.455 3.177.899.72.364 1.392.979 1.61 1.629.202.596.171 1.007-.137 1.545-.346.608-1.003 1.058-1.668 1.095-.199.014-.944-.086-1.172-.263-.091-.072-.086-.2-.02-.286.024-.031.371-.214.578-.323.102-.057.188-.117.268-.19.171-.152.325-.317.307-.51-.023-.252-.289-.408-.544-.507-1.192-.474-3.572-.868-4.723-.936-.45-.026-1.09-.049-1.09-.049l.135 6.352s.53.101.946.17a25.3 25.3 0 0 0 1.524.133c2.053.055 4.344-.128 6.228-1.02.826-.389 1.585-.872 2.16-1.527.757-.87 1.154-2.057 1.048-3.297-.115-1.357-1.07-2.964-1.83-3.943-2.012-2.59-5.461-4.716-8.495-5.964-3.098-1.273-6.159-2.007-9.448-2.13-.847-.03-2.696.013-3.629.272-.135.037-.268.082-.392.109a1.115 1.115 0 0 0-.294.122l-.048.046s.058.031.113.056c.1.043.516.068.732.107.191.036.394.14.472.281.076.134.087.24-.005.35-.212.26-1.009.215-1.359.16-.364-.059-.818-.17-.902-.487-.096-.374.08-.74.273-1.08.386-.678.937-1.03 1.747-1.251a17.812 17.812 0 0 1 3.682-.578c2.455-.092 4.778.336 7.155 1.06 1.361.41 3.145 1.1 4.448 1.729.935.45 2.41 1.282 3.24 1.825a61.17 61.17 0 0 1 2.027 1.492c.495.405 1.144.987 1.612 1.453.908.9 2.038 2.279 2.588 3.372.13.264.234.522.403.825.058.104.31.727.352.907.04.178.101.44.11.45.013.096.128.63.119.837zm10.576.461l.1.013c.751.102 1.488.237 2.05.49.524.231.831.523 1.11 1.044.426.79.455 1.896.07 2.733-.288.623-.919 1.146-1.494 1.423-.6.29-1.187.428-1.863.505-1.18.129-2.457-.114-3.52-.629-.629-.307-1.397-.836-1.785-1.517-.285-.501-.276-1.15.071-1.624.552-.756 1.735-.922 2.627-.89.68.024 1.902.236 2.549.464.18.065.838.322.953.438.08.084.134.202.098.313-.149.451-1.243.689-1.56.736-.847.13-1.286-.19-2.25-.57-.238-.094-.557-.197-.801-.22-.437-.042-.965.079-1.047.557-.043.247.246.476.466.572a3.52 3.52 0 0 0 1.446.31c1.5.023 3.187-.223 4.416-1.093.17-.12.334-.296.336-.518 0-.028-.04-.266-.117-.291-.011-.005-.023 0-.032-.001-.028-.009-.076-.086-.116-.137-.088-.108-.444-.261-.514-.29-.828-.346-2.356-.514-3.145-.579-.826-.07-2.126-.18-2.439-.225-.32-.046-.67-.11-.95-.235-.278-.126-.551-.409-.633-.72-.144-.565.04-1.257.353-1.709.821-1.18 2.742-1.627 4.18-1.805 1.39-.173 3.638-.172 5.003.554.211.113.32.218.275.444-.089.423-.41.695-.793.815-.404.129-1.24.178-1.608.201-1.646.093-3.636.044-5.203.473-.123.035-.335.09-.405.168-.245.266.456.342.607.375.044.008.053.01.1.015l3.465.41zm5.136 6.159c-.664-.244-.815-1.318-.846-1.86-.105-1.769.362-4.228.955-5.885.17-.471.414-1.242.942-1.199.363.033.622.313.826.6.521.735 1.206 1.73 1.66 2.424.508.777.995 1.56 1.474 2.267.06.086.115.17.179.223.087.07.165.073.2.008.017-.025-.015-.918-.037-1.097-.037-.285-.054-.516-.086-.762-.088-.714-.316-1.72-.495-2.4-.196-.76-.437-1.553-.616-2.289-.058-.239-.111-.48-.11-.708.002-.33.214-.511.557-.388.676.238 1.572 1.706 1.833 2.215.089.172.44 1.048.52 1.293.28.84.45 1.638.528 2.554.074.89.011 2.188-.365 3.066-.138.323-.422.757-.658.976-.37.343-1.108.61-1.616.32-.556-.314-1.47-1.897-1.626-2.168-.53-.926-1.443-2.736-1.584-2.94a.256.256 0 0 0-.142-.108c-.054-.016-.075.095-.089.168-.09.527-.153 2.993-.154 3.062-.016.415-.036 1.433-.156 1.934-.078.327-.157.596-.458.733-.214.097-.377.056-.636-.04zm9.164-.158a2.441 2.441 0 0 1-.273-.269 4.698 4.698 0 0 1-.3-.482c-.041-.095-.073-.164-.103-.243-.217-.562-.212-1.115-.091-1.719.111-.563.217-.587.506-1.36a.443.443 0 0 0 .034-.126c.012-.106-.16-.819-.17-1.047-.012-.35.26-.598.713-.646.042-.003.073-.003.103-.012.181-.044.297-.39.396-.669.138-.39.354-.987.354-.987s-.574-.132-.881-.248c-.343-.13-.602-.297-.758-.611-.186-.369-.063-.573.321-.692.142-.046 1.255-.26 1.607-.31.44-.063.852-.118 1.27-.17.363-.044 2.03-.237 2.56-.223.808.023 1.333.356 1.805 1.04.254.365.428.8.044 1.035-.589.357-2.497.384-2.847.388-.557.006-1.327-.004-1.327-.004l-.388 1.299s1.367-.015 2.135-.018c.187 0 .373.01.478.032.392.087.528.389.544.823.021.509-.075.742-.48.81-.21.034-2.558.048-2.876.085-.199.022-.409.053-.409.053s-.17.443-.317.89c-.149.466-.276.94-.276.94s.119.006.218.006c.165.001.333-.023.464-.045.717-.132 1.782-.29 2.656-.427.47-.075.706-.108.953.203.214.276.325.507.34.84.014.313-.225.52-.517.744-.924.706-2.504 1.472-3.68 1.603-.544.061-.676 0-1.153-.124-.09-.023-.42-.177-.416-.193 0 0-.179-.119-.24-.166zm14.848-6.526c-.606.507-1.388 1.54-1.761 2.077-.499.712-.968 1.527-1.417 2.158-.097.142-.386.65-.376.666.02.036.311.025.611-.026.638-.107 1.505-.555 1.968-.924a4.173 4.173 0 0 0 1.429-2.252c.102-.412.155-1.278-.138-1.664-.057-.073-.203-.132-.316-.035zm-4.808 7.424s-.192.563-.333 1.004c-.243.762-.777 2.813-.9 3.45-.186.947-.716 3.426-.743 3.479-.038.072-.062.095-.152.152-.218.128-.306.086-.57-.056-.343-.18-.644-.364-.902-.704-.517-.672-.393-1.936-.292-2.677.355-2.594.714-3.735 1.7-6.317.017-.044.017-.054-.003-.093a5.193 5.193 0 0 1-.474-2.086c.003-2.024 1.166-4.026 2.47-5.635.098-.122.738-.889 1.029-.874.291.014.339.354.295.638-.146.935-.804 1.887-1.253 2.675-.506.881-.616 1.244-.863 2.052-.04.126-.139.716-.135.792.011.217.058.49.058.49s.822-1.151 1.365-1.862c.297-.39.51-.648.757-.926a47.97 47.97 0 0 1 1.492-1.55c.583-.556.842-.787 1.473-1.115.5-.258.949-.323 1.436 0 .773.507 1.11 1.581 1.197 2.452.102 1.04-.111 2.211-.57 3.102-.544 1.064-1.288 1.83-2.299 2.499-1.033.685-2.246 1.15-3.435 1.123-.161-.004-.348-.013-.348-.013z" fill="#818192"/></svg>